<?xml version="1.0" encoding="UTF-8" standalone="no"?>
<svg version="1.0" xmlns="http://www.w3.org/2000/svg"
 width="166.000000pt" height="142.000000pt" viewBox="0 0 166.000000 142.000000"
 preserveAspectRatio="xMidYMid meet">
<g transform="rotate(-180 100 100) translate(40.0,200.0) scale(0.100000,-0.100000)"
fill="#303030" stroke="#303030">
<path d="M 1025.362793,66.500000 C 1025.362793,72.500000 1020.362793,93.500000
 1013.362671,111.500000 C 1004.362793,136.500000 1004.362793,147.500000
 1013.362671,156.500000 C 1032.362671,175.500000 1055.362671,147.500000
 1055.362793,103.500000 C 1055.362793,57.500000 1071.362793,51.500000
 1080.362793,94.500000 C 1088.362793,129.500000 1103.362793,142.500000
 1111.362793,119.500000 C 1119.362793,99.500000 1172.362793,71.500061
 1180.362793,83.500061 C 1190.362793,100.500061 1167.362793,141.500061
 1135.362793,165.500000 C 1079.362671,207.500031 1043.362671,248.500031
 1024.362671,289.500031 C 987.362671,370.500000 1008.362671,457.500000
 1072.362671,488.500000 C 1114.362671,508.500000 1133.362671,498.500000
 1116.362671,466.500000 C 1098.362671,432.500031 1122.362671,430.500031
 1141.362671,464.500000 C 1151.362671,480.500000 1167.362671,497.500000
 1177.362671,500.500000 C 1210.362671,510.500000 1217.362671,495.500000
 1209.362671,427.500031 C 1204.362671,374.500031 1205.362671,362.500031
 1216.362671,366.500031 C 1224.362671,369.500031 1231.362671,380.500031
 1233.362671,392.500031 C 1238.362671,424.500031 1262.362671,419.500031
 1268.362671,384.500031 C 1275.362671,352.500031 1292.362671,344.500031
 1301.362671,369.500031 C 1305.362671,377.500031 1313.362671,384.500031
 1321.362671,384.500031 C 1346.362671,384.500061 1336.362671,411.500031
 1300.362671,438.500031 C 1234.362671,489.500000 1228.362671,535.500000
 1292.362671,503.500061 C 1313.362671,493.500061 1335.362671,484.500061
 1343.362671,484.500061 C 1350.362671,484.500061 1362.362671,470.500061
 1369.362671,453.500061 C 1380.362671,426.500061 1383.362671,425.500061
 1389.362671,440.500061 C 1395.362671,456.500061 1397.362671,456.500061
 1405.362671,444.500061 C 1411.362671,436.500061 1415.362671,419.500061
 1415.362671,407.500061 C 1415.362671,376.500061 1436.362671,387.500061
 1459.362671,429.500061 C 1474.362671,457.500061 1476.362671,466.500061
 1465.362671,479.500061 C 1455.362671,491.500061 1456.362671,495.500061
 1469.362671,500.500061 C 1478.362671,503.500061 1485.362671,512.500061
 1485.362671,520.500061 C 1485.362671,531.500061 1467.362671,534.500061
 1397.362671,532.500061 C 1349.362671,530.500061 1304.362671,533.500061
 1297.362671,537.500061 C 1276.362671,551.500061 1303.362671,574.500061
 1339.362671,575.500061 C 1356.362671,575.500061 1411.362671,578.500061
 1462.362671,580.500061 C 1561.362671,586.500061 1582.362671,596.500061
 1571.362671,636.500061 C 1562.362671,672.500061 1516.362671,716.500061
 1495.362671,709.500061 C 1484.362671,706.500061 1462.362671,710.500061
 1446.362671,718.500061 C 1429.362671,727.500061 1403.362671,734.500061
 1388.362671,734.500061 C 1367.362671,734.500061 1347.362671,746.500061
 1317.362671,777.500061 C 1294.362671,800.500061 1275.362671,825.500061
 1275.362671,831.500061 C 1275.362671,845.500061 1214.362671,899.500000
 1176.362671,919.500000 C 1160.362671,927.500000 1131.362671,933.500000
 1111.362671,932.500000 C 1040.362671,929.500000 1031.362671,962.500000
 1069.362671,1077.500000 C 1082.362671,1117.500000 1095.362671,1164.500000
 1098.362671,1181.500000 C 1107.362671,1228.500000 1152.362549,1291.500000
 1184.362549,1302.500000 C 1213.362549,1312.500000 1262.362549,1369.500000
 1248.362549,1376.500000 C 1243.362549,1379.500000 1217.362549,1379.500000
 1189.362549,1376.500000 C 1120.362549,1371.500000 1089.362549,1344.500000
 1070.362671,1274.500000 C 1063.362671,1244.500000 1033.362671,1172.500000
 1005.362671,1114.500000 C 933.362671,964.500000 930.362671,959.500000
 920.362671,961.500000 C 909.362671,963.500000 877.362671,1075.500000
 876.362549,1115.500000 C 875.362549,1130.500000 862.362549,1152.500000
 844.362549,1170.500000 C 827.362549,1186.500000 805.362549,1215.500000
 794.362549,1235.500000 C 760.362610,1302.500000 657.362610,1372.500000
 661.362610,1326.500000 C 662.362610,1320.500000 663.362610,1298.500000
 664.362610,1279.500000 C 665.362610,1251.500000 671.362610,1242.500000
 698.362610,1229.500000 C 717.362610,1220.500000 746.362610,1199.500000
 763.362610,1181.500000 C 791.362549,1152.500000 795.362549,1139.500000
 805.362671,1056.500000 C 811.362671,1005.500000 813.362671,959.500000
 810.362671,954.500000 C 807.362671,950.500000 760.362671,946.500000
 706.362671,947.500000 C 629.362671,947.500000 600.362671,943.500000
 581.362671,930.500000 C 544.362671,906.500000 535.362671,910.500000
 535.362671,949.500000 C 535.362671,968.500000 526.362671,1006.500000
 515.362671,1034.500000 C 489.362671,1100.500000 490.362671,1156.500000
 517.362671,1211.500000 C 538.362610,1252.500000 559.362610,1275.500000
 628.362610,1329.500000 C 669.362610,1360.500000 662.362610,1374.500000
 606.362610,1374.500000 C 539.362610,1374.500000 519.362610,1354.500000
 452.362671,1222.500000 C 452.362671,1222.500000 397.362671,1115.500000
 397.362671,1115.500000 C 397.362671,1115.500000 416.362671,1049.500000
 416.362671,1049.500000 C 437.362671,981.500000 438.362671,933.500000
 419.362671,927.500000 C 414.362671,925.500000 382.362671,950.500000
 349.362671,981.500000 C 317.362671,1013.500000 269.362671,1057.500000
 244.362610,1080.500000 C 206.362610,1113.500000 194.362610,1132.500000
 181.362610,1180.500000 C 156.362610,1268.500000 145.362610,1292.500000
 115.362610,1324.500000 C 74.362610,1368.500000 55.362610,1364.500000
 55.362610,1311.500000 C 56.362610,1280.500000 64.362610,1256.500000
 90.362610,1219.500000 C 109.362610,1191.500000 136.362610,1133.500000
 150.362610,1089.500000 C 172.362671,1020.500000 181.362671,1005.500000
 215.362671,982.500000 C 236.362671,967.500000 261.362671,944.499939
 270.362671,930.499939 C 287.362671,904.499939 287.362671,908.499939
 255.362671,749.499939 C 249.362671,721.499939 247.362671,689.499939
 250.362671,676.499939 C 253.362671,663.499939 249.362671,644.499939
 240.362671,631.499939 C 204.362671,580.499939 236.362671,533.499939
 279.362671,573.499939 C 301.362671,594.499939 306.362671,594.499939
 346.362671,583.499939 C 397.362671,569.500000 523.362671,569.500000
 720.362671,583.500000 C 806.362671,589.500000 866.362671,589.500000
 876.362671,583.500000 C 902.362671,570.500000 984.362671,573.500000
 1030.362671,589.500000 C 1073.362671,605.500000 1245.362671,610.500061
 1245.362671,596.500061 C 1245.362671,560.500000 1174.362671,544.500000
 998.362671,540.500000 C 940.362671,539.500000 911.362671,523.500000
 952.362671,516.500000 C 984.362671,509.500000 987.362671,498.500000
 964.362671,460.500000 C 945.362671,427.500000 943.362671,414.500000
 949.362671,345.500000 C 955.362793,271.500000 954.362793,267.500000
 930.362793,244.500000 C 907.362793,222.500000 896.362793,194.500000
 912.362793,194.500000 C 916.362793,194.500000 929.362793,203.500000
 941.362793,215.500000 C 968.362793,240.500000 985.362793,233.500000
 985.362793,196.500000 C 985.362793,179.500000 974.362793,158.500000
 955.362793,141.500000 C 925.362793,112.500000 916.362793,81.500000
 936.362793,69.500000 C 942.362793,65.500000 949.362793,71.500000
 952.362793,83.500000 C 958.362793,105.500000 985.362793,112.500000
 985.362793,91.500000 C 985.362793,84.500000 994.362793,73.500000
 1005.362793,66.500000 C 1020.362793,57.500000 1025.362793,57.500000
 1025.362793,66.500000  z"/>
</g>
</svg>
