<svg version="1" xmlns="http://www.w3.org/2000/svg" width="1109.333" height="1109.333" viewBox="0 0 832.000000 832.000000"><path d="M288.1 92.2c-.8 2.3.9 9.6 5.5 23.3 4.5 13.5 4.2 20.4-1.2 24-3.6 2.3-7.7 1.9-10.6-1.3-3.2-3.4-6.3-8.2-5.3-8.2.4 0 .2-.7-.5-1.5-.6-.8-.9-1.9-.5-2.5.3-.5.1-1-.5-1-.7 0-1-.6-.7-1.4.3-.8.3-1.7 0-2-.3-.3-.7-3.4-.9-6.8-1-17.4-2.3-22.1-5.8-21.6-2.6.4-5.4 6.2-8.6 17.7-1.8 6.2-3.2 9.2-5.8 12l-3.4 3.6-2.4-3c-1.3-1.6-2.8-4.1-3.4-5.5-1.2-2.6-10.9-11-12.8-11-.6 0-1.2-.4-1.4-.8-.6-1.5-9.8-5.2-14-5.6-3.1-.3-4.5 0-5.5 1.2-3.4 4.5.2 16.5 8.1 26.7 5.6 7.2 8.4 9.9 18.7 18 10.8 8.5 30.5 27.4 35.4 34 1.6 2.2 3.2 4.2 3.5 4.5.3.3 2.2 3 4.2 6 5.7 8.8 11.1 20.3 12.2 26 .1.3.4.9.7 1.5.4.5 1 2.3 1.3 4 .3 1.6.9 4.1 1.2 5.5 5.2 25.3-1.3 51.2-16.8 66-6.9 6.5-7.4 6.9-13.6 10.1-6.5 3.3-12 5-17.5 5.5-3 .2-4.4-.2-6.2-2-2.7-2.7-2.5-4.2 1.9-15.9 3-7.9 3-7.8 1.3-10.1-1.2-1.7-1.6-1.7-4.3-.3-3.7 1.9-7 5.6-12.1 13.2-9.6 14.3-19.9 19.9-29.4 16.1-3.6-1.5-5.2-15.4-3.4-31.1.9-8.4 1.8-22.2 1.8-27.8 0-7.1-1.8-9.6-5.4-7.7-2.9 1.5-6 4.7-6.3 6.3-.1.7-.5 1.7-.8 2.3-.4.6-.9 2.3-1.2 3.8-1 5.6-4 10.1-6.9 10.4-1.5.2-3.4-.3-4.2-1.1-1.8-1.8-5.5-8.4-5.5-9.8 0-3.2-3.5-12.3-5.7-14.9-4.3-5.1-7.7-3.8-12.5 4.8-2 3.7-5.6 6.2-10 6.8-9.2 1.4-7.9 9.5 3.2 20.3 2.5 2.5 6.1 5.7 8 7.1 14.9 11.2 27.4 27.5 26.1 34-.5 2.2-3.3 3.8-6.1 3.4-6.3-1-7.1-1.3-18.5-6.4-10.3-4.6-19.4-8-21.7-8-4.3-.1-9.1-5.8-15.3-18.4-2.2-4.5-4.6-8.1-5.4-8.1-1.2 0-4.7 5.4-6.4 9.7-.5 1.4-4.2-2-6.3-5.7-1.5-2.6-3.3-10.9-3.7-16.5-.4-5.5-1.6-7.9-4.5-8.5-4.6-.9-15.8 13.6-22.3 28.9-3 7.1-2.7 9.8 1.9 16.9 1.7 2.7 2.9 5.4 2.6 6.1-.3.7-2.5 2.2-4.9 3.4-6.3 3.1-9.5 8.4-7.4 12.3 1.9 3.5 8.2 4.2 46.4 4.4 20.4.2 38.4.5 40 .8 1.7.3 3.8.5 4.7.6 3 .2 6 4.3 5.4 7.4-.5 2.7-5.1 7.6-7.1 7.7-.5 0-2.2.6-3.6 1.4-3.8 2-9.3 2.8-19.9 3.1-17.8.6-52.5 2.1-64.5 3-9.7.7-19.7 1.9-25.5 3-1.4.3-3.6.7-5 1-5 1-13 5.7-14.5 8.6-.9 1.6-1.3 2.9-1.1 2.9.3 0 .1 1.3-.4 3-.5 1.8-.5 3.2.1 3.6.5.3.7.9.5 1.3-.6 1 2.1 10.2 3.4 11.5.6.6 1 1.8 1 2.7 0 1 .3 1.9.8 2.1.4.1 2.4 2.6 4.5 5.5 8 11 20.4 19.8 27.1 19.4 12.2-.8 15.6-.2 30.1 5.9 5 2.1 10.7 4.1 12.9 4.4 2.1.4 4.2.8 4.6 1.1.5.3 3.7.7 7.2 1 7.3.6 12.2 2 16 4.6 1.4 1.1 2.9 1.9 3.2 1.9 1.4 0 21.8 19.6 27.6 26.5 4.9 5.8 9.8 13 10.5 15.5 2.1 6.8 15.2 20.1 32.5 32.9 17.8 13.3 27.9 16.9 48.2 17.6 23 .8 29.1 3.6 32.3 14.9 1.7 6.1 1.3 16.3-1 26.1-.9 3.8-1.9 8-2.1 9.3-.3 1.3-1.2 4.4-2.1 7-.8 2.6-1.7 5.4-1.8 6.2-.2.8-.4 1.5-.5 1.5-.1 0-.3.7-.5 1.5s-1.7 6-3.4 11.5-3.3 10.7-3.5 11.6c-.2.8-1.8 6.2-3.4 12-2.6 8.9-4 14.3-4.3 16.4 0 .2-.7 2.8-1.5 5.7-.8 2.9-1.7 6.4-2 7.7-1.4 6.8-10.1 23.2-17.2 32.6-7.1 9.4-15.4 16.8-23.4 20.9-4 2.1-9.3 5.4-11.8 7.4-5.8 4.6-16.5 15.9-18.2 19.2-.7 1.4-1.7 2.8-2.1 3.1-.4.3-1 2.2-1.4 4.2-.5 3.4-.4 3.6 2.8 4.4 3.2.9 15.1.8 25.4 0 8.4-.8 17-1.9 17.8-2.4.4-.2 2-.6 3.5-.9 8.2-1.4 27.2-14.1 27.2-18.2 0-.7.4-1.2.9-1.2 1.4 0 7.5-12.6 10-20.5 3-9.4 3-9.4 3.2-10.3.5-1.9 6-17.9 6.8-19.7 1-2.3 2.3-5.5 2.7-7 .3-1.3 8.1-19.6 13.2-31 3.8-8.5 10.1-21.9 23.3-49.2 3.2-6.7 5.9-12.6 5.9-13.2 0-.5.3-1.1.8-1.3.8-.3 5.2-9.4 5.1-10.4 0-.4.3-1 .8-1.3.4-.3 2.5-4 4.7-8.1 8-15.6 10.8-16.9 15.2-7.2 2.9 6.3 7.7 20.8 10 29.7 3 11.8 6.4 26.6 6.3 27.2-.1.5-.1 1 .1 1.3.1.3.3 1.8.5 3.5 1.1 8.3 1.6 12.1 1.8 13.6.4 2.2 7.3 13.9 10.3 17.5 1.4 1.6 4.7 5.1 7.2 7.8 2.6 2.8 6.8 7.7 9.5 11 2.6 3.4 5.6 7.2 6.7 8.6 1.1 1.4 2.6 3.7 3.2 5.2.7 1.6 1.6 2.8 2 2.8.5 0 .8.4.8 1 0 3.2 12.3 20 21.6 29.4 6.7 6.8 23 19.6 24.9 19.6.4 0 1.9.8 3.3 1.9 4.9 3.3 12.5 4.6 15.8 2.6 2.3-1.4 2.3-2.3 1-24-.8-12.8-1.5-17.3-2.7-18.1-.5-.3-.7-.9-.4-1.4.8-1.3-7.8-8.3-14.7-12-17.8-9.4-36.9-26.1-42.6-37.3-3.5-6.8-6.7-18.4-7.7-27.4-.4-3.2-.8-6.9-1.1-8.3-3.7-21.1-6.2-60.5-4-63.5 1.3-1.7 3.7-2.3 12.8-3 3.4-.2 6.3-.5 6.3-.5 0-.1 12.4-.3 27.5-.5 35-.5 52.2-1.6 55.5-3.7.6-.3 2.4-.9 4.2-1.3 1.8-.3 5.9-2.4 9.3-4.5 3.3-2.2 6-3.7 6-3.5 0 .3 1.1-.2 2.4-1 4.1-2.7 8.4-2.8 10.1-.1 1.9 2.9 2.1 3.9 2.9 15.1.4 4.9.9 9.8 1.2 10.7.3.9.7 2.7.9 4 1.2 6 1.7 8.5 2.6 11.3 1.9 6.6 7.1 22.1 8 24 .5 1.1 1 2.9 1.2 4 .1 1.1.6 2.6 1.1 3.3.4.7 1.5 5.2 2.3 10 2.1 11.4 2 30.6-.1 39.7-2.4 10.3-2.4 10.2-3.4 12.2-.6 1-1.1 2.2-1.2 2.8-.6 3.2-6.8 14.9-11.4 21.9-8.1 12.2-23.5 27-47.8 46.1-10.3 8.1-14.2 13.4-12.6 17 1.2 2.7 4.8 4.5 10.3 5.2 4.4.5 25.1.5 27.5 0 8.8-1.9 13.5-3.9 19.4-8.1 3.5-2.5 8.7-7.7 11.2-11.3 1.1-1.4 2.8-3.7 3.9-5.2 4.1-5.3 6.5-9 6.5-9.9 0-.5.7-1.5 1.5-2.2.8-.7 1.5-2.1 1.5-3 0-1 .4-2 .9-2.2.9-.3 2.8-3.8 12.3-21.7 4.6-8.7 20.9-40.4 30-58.3l3.9-7.8-2.1-7.1c-1.2-4-2.3-7.9-2.6-8.8-.2-.9-2.2-7.9-4.4-15.6-2.3-7.7-4.3-15.1-4.6-16.5-.3-1.4-.9-4.1-1.4-6-2.3-9-3.2-25.2-1.7-31.3.9-3.9 4.1-8.7 5.8-8.7.9 0 13.9 8.9 16.6 11.4 1.1 1.2 4.3 3.9 6.9 6.1 2.6 2.2 6.8 6 9.3 8.3 6.4 6.1 31.4 29.9 36.5 34.7 2.4 2.2 8.2 7.6 13.1 12 16.3 14.8 26.5 26.1 26.5 29.4 0 .5.7 1.4 1.5 2.1.9.7 1.3 1.5 1 1.8-.3.3-.1 1 .4 1.6 1.2 1.4 4.8 12.4 10.6 32.1 2.6 8.8 5.1 16.9 5.6 18 .4 1.1 2.2 5.6 3.9 10 5.5 14.2 11.5 23.1 23.6 35.1 15.5 15.5 23.9 15.7 26 .4.8-5.6 1-16 .4-16-.4 0-.5-1.3-.4-2.9.4-6.3-7.4-24.7-14.8-34.7-2.1-2.8-3.8-5.4-3.8-5.7 0-.4-1.6-3.1-3.5-6.2-2-3-3.5-5.7-3.5-6 0-.3-1.7-4-3.8-8.3-2.2-4.2-5.6-11.8-7.6-16.7-2.1-5-4.1-9.9-4.6-11-.8-1.8-5.1-14.3-11-31.5-5.6-16.2-15.2-29.9-24.2-34.6-1.6-.8-2.8-1.9-2.8-2.4 0-.6-.5-1-1.1-1-2.7 0-26.9-23-26.9-25.5 0-.3-1-1.9-2.2-3.6-1.9-2.5-2.2-4.3-2.2-11.2 0-7.3 1.1-19.3 1.9-20.7.2-.3.6-2.6 1-5 .3-2.5 1.1-6.5 1.7-9 .5-2.5 1.2-5.6 1.4-7 .3-1.4 1.5-7.9 2.9-14.5 5.9-29 6.5-33.5 6.4-47-.2-21-.3-20.4 3.7-28.4 2.1-4.2 4.3-8.3 4.9-9.1 2.1-2.8 4-10.4 3.8-15.8-.2-9.4-6.7-15.7-14.5-14-4.4.9-10.4 4.5-14.8 8.8-1.7 1.6-3.5 3-4 3-.6 0-1 .4-1 .9 0 1.5-5.5 2.9-10.6 2.6-2.7-.1-8.7-1.2-13.4-2.3-11.8-2.9-11.8-2.9-28-4.8-1.9-.2-4.2-.4-5-.4-.8 0-2.8-.1-4.5-.2-9.3-.4-73.2 0-85.5.6-25.8 1.3-29 1.4-38.8 2.1-9.6.7-14.1.9-31.7 2-4.9.2-13.7.8-19.5 1.1-5.8.4-19.3.6-30 .6-16.7 0-20.4-.3-25.6-2-3.4-1.1-8.6-2.4-11.5-2.8-10-1.4-35.6-.8-44.9 1.1-1.4.3-3.8.8-5.5 1-1.6.3-6.3 1.5-10.3 2.6-4 1.1-8.2 2.2-9.3 2.5-1 .2-2.9.6-4.1.9-1.3.3-4.1.8-6.3 1.1-2.2.3-5.1.8-6.5 1-1.4.3-5.4.7-9 1-3.6.2-8.1.7-10 1-7.8 1.3-54.8 1.2-60.5-.1-3.1-.8-5.9-1.5-6.1-1.8-.2-.2-.1-1.8.2-3.5.8-3.8 5.6-8.9 10.4-10.9 4.8-2.1 8.4-3.6 9-3.8 1.6-.5 5.8-1.5 8-1.9 1.4-.2 4.7-.9 7.3-1.5 4.6-1.1 7.2-1.5 18.2-2.6 2.8-.3 6.6-.8 8.5-1 7.4-.9 28-2.1 54-2.9 21.5-.7 29.2-1.8 37.2-5.3 3.1-1.3 3.6-1.9 2.8-3.4-.9-1.6-3.4-2.9-6.8-3.5-5.2-.9-12.6-4.1-14.2-6.1-2.8-3.6-1.8-7.2 6-22.8 3.8-7.7 7.3-16 7.7-18.5.9-5.4.9-22.3 0-34-.4-4.7-.9-15.5-1.2-24-.6-18.8-.2-20 10.9-32 4.2-4.6 7.6-8.9 7.6-9.6 0-.7.5-1.4 1-1.6 1.6-.5 4-8.2 3.3-10.6-1.2-4.8-6.5-3.2-14.8 4.5-16 14.6-24.2 13.5-24.9-3.5-.5-10.5 3.1-18.1 14.1-29.5 10.9-11.4 15.2-19.3 14.9-27.5-.2-5.6-3.4-10.4-6.7-9.9-1.9.3-5.9 3.5-5.7 4.6.1.3-.6 2.2-1.5 4.1-4.2 9.6-13.8 11.7-15.3 3.5-1-5.6-5.4-10.7-12.6-14.5-4.8-2.6-6.7-2.5-7.7.2z"/></svg>